<?xml version="1.0" standalone="no"?>
<!DOCTYPE svg PUBLIC "-//W3C//DTD SVG 20010904//EN"
 "http://www.w3.org/TR/2001/REC-SVG-20010904/DTD/svg10.dtd">
<svg version="1.0" xmlns="http://www.w3.org/2000/svg"
 width="512.000000pt" height="512.000000pt" viewBox="0 0 512.000000 512.000000"
 preserveAspectRatio="xMidYMid meet">

<g transform="translate(0.000000,512.000000) scale(0.100000,-0.100000)"
fill="#000000" stroke="none">
<path d="M580 4607 c-30 -16 -51 -37 -67 -67 -27 -51 -29 -86 -8 -138 11 -26
283 -305 918 -939 l902 -903 -902 -902 c-635 -635 -907 -914 -918 -940 -21
-52 -19 -87 8 -138 16 -30 37 -51 67 -67 51 -27 86 -29 138 -8 26 11 305 283
939 918 l903 902 903 -902 c634 -635 913 -907 939 -918 52 -21 87 -19 138 8
30 16 51 37 67 67 27 51 29 86 8 138 -11 26 -283 305 -918 940 l-902 902 902
903 c635 634 907 913 918 939 21 52 19 87 -8 138 -16 30 -37 51 -67 67 -51 27
-86 29 -138 8 -26 -11 -305 -283 -939 -918 l-903 -902 -902 902 c-635 635
-914 907 -940 918 -52 21 -87 19 -138 -8z"/>
</g>
</svg>
