<?xml version="1.0" standalone="no"?>
<!DOCTYPE svg PUBLIC "-//W3C//DTD SVG 20010904//EN"
 "http://www.w3.org/TR/2001/REC-SVG-20010904/DTD/svg10.dtd">
<svg version="1.0" xmlns="http://www.w3.org/2000/svg"
 width="512.000000pt" height="512.000000pt" viewBox="0 0 512.000000 512.000000"
 preserveAspectRatio="xMidYMid meet">

<g transform="translate(0.000000,512.000000) scale(0.100000,-0.100000)"
fill="#000000" stroke="none">
<path d="M4090 3978 c-27 -9 -274 -250 -1112 -1087 l-1078 -1076 -462 462
c-317 316 -475 467 -500 478 -150 62 -316 -64 -294 -224 3 -24 14 -57 24 -73
10 -16 263 -279 563 -585 384 -393 556 -561 584 -574 58 -27 108 -24 186 12
64 30 114 79 1195 1181 635 646 1139 1167 1152 1190 59 109 -5 260 -127 297
-45 13 -83 13 -131 -1z"/>
</g>
</svg>
