<?xml version="1.0" standalone="no"?>
<!DOCTYPE svg PUBLIC "-//W3C//DTD SVG 20010904//EN"
 "http://www.w3.org/TR/2001/REC-SVG-20010904/DTD/svg10.dtd">
<svg version="1.0" xmlns="http://www.w3.org/2000/svg"
 width="512.000000pt" height="512.000000pt" viewBox="0 0 512.000000 512.000000"
 preserveAspectRatio="xMidYMid meet">

<g transform="translate(0.000000,512.000000) scale(0.100000,-0.100000)"
fill="#000000" stroke="none">
<path d="M2650 4793 c-94 -11 -288 -56 -395 -93 -358 -123 -679 -355 -907
-653 -524 -687 -529 -1638 -13 -2323 36 -47 65 -89 65 -92 0 -4 -237 -243
-526 -532 -289 -289 -532 -537 -540 -552 -22 -42 -18 -119 9 -158 44 -66 137
-92 203 -56 16 8 265 251 554 540 289 289 528 526 532 526 3 0 45 -29 92 -65
571 -430 1340 -506 1984 -195 549 265 931 754 1058 1355 36 167 45 468 19 647
-78 553 -388 1040 -860 1351 -229 151 -500 253 -776 292 -96 13 -405 18 -499
8z m385 -333 c280 -31 544 -129 760 -281 115 -81 302 -269 382 -382 517 -734
325 -1756 -421 -2248 -295 -194 -640 -284 -996 -258 -399 29 -750 195 -1030
485 -209 216 -343 470 -412 776 -20 91 -23 128 -23 328 1 211 2 232 29 345
158 674 700 1156 1386 1234 107 12 221 12 325 1z"/>
</g>
</svg>
