<?xml version="1.0" standalone="no"?>
<!DOCTYPE svg PUBLIC "-//W3C//DTD SVG 20010904//EN"
 "http://www.w3.org/TR/2001/REC-SVG-20010904/DTD/svg10.dtd">
<svg version="1.0" xmlns="http://www.w3.org/2000/svg"
 width="512.000000pt" height="512.000000pt" viewBox="0 0 512.000000 512.000000"
 preserveAspectRatio="xMidYMid meet">

<g transform="translate(0.000000,512.000000) scale(0.100000,-0.100000)"
fill="#000000" stroke="none">
<path d="M2306 4739 c-278 -40 -510 -111 -751 -229 -259 -126 -421 -245 -624
-457 l-128 -132 -32 137 c-64 271 -78 299 -164 341 -136 66 -307 -39 -307
-188 0 -12 52 -237 115 -499 124 -514 125 -515 204 -569 67 -45 81 -44 587 77
258 62 485 120 504 130 129 66 148 243 39 347 -72 68 -108 68 -377 3 -114 -28
-213 -49 -220 -48 -19 4 161 192 256 269 371 300 808 439 1280 408 509 -33
990 -288 1304 -689 202 -260 324 -546 373 -880 18 -122 31 -158 73 -197 91
-85 262 -64 330 40 25 37 27 49 26 131 -3 192 -93 515 -209 751 -223 454 -578
804 -1040 1026 -284 137 -600 220 -887 234 -62 3 -138 7 -168 9 -30 2 -113 -5
-184 -15z"/>
<path d="M478 2606 c-63 -17 -111 -56 -138 -112 -20 -40 -22 -56 -17 -128 27
-383 228 -857 502 -1185 81 -99 271 -281 365 -353 399 -302 867 -460 1365
-459 232 0 359 16 571 71 424 109 834 365 1125 702 l58 68 10 -38 c6 -20 28
-111 51 -202 44 -181 64 -217 134 -253 57 -30 141 -26 204 8 59 32 87 67 104
129 11 43 8 63 -56 333 -142 597 -172 709 -196 741 -32 43 -112 82 -169 82
-41 0 -919 -204 -982 -228 -80 -31 -124 -111 -117 -212 5 -68 40 -129 97 -167
60 -41 96 -39 345 22 126 30 231 53 234 50 8 -8 -122 -147 -213 -228 -662
-580 -1634 -607 -2330 -63 -44 35 -127 112 -185 173 -268 278 -425 601 -489
1002 -23 142 -45 185 -113 224 -55 31 -101 38 -160 23z"/>
</g>
</svg>
