<?xml version="1.0" standalone="no"?>
<!DOCTYPE svg PUBLIC "-//W3C//DTD SVG 20010904//EN"
 "http://www.w3.org/TR/2001/REC-SVG-20010904/DTD/svg10.dtd">
<svg version="1.0" xmlns="http://www.w3.org/2000/svg"
 width="512.000000pt" height="512.000000pt" viewBox="0 0 512.000000 512.000000"
 preserveAspectRatio="xMidYMid meet">

<g transform="translate(0.000000,512.000000) scale(0.100000,-0.100000)"
fill="#000000" stroke="none">
<path d="M2485 5111 c-83 -22 -164 -89 -204 -168 -45 -90 -35 -220 23 -306
l25 -36 -432 -565 -432 -565 -625 -3 -625 -3 -48 -24 c-65 -32 -133 -110 -152
-175 -13 -46 -15 -240 -13 -1552 l3 -1499 21 -45 c27 -57 87 -117 144 -144
l45 -21 2345 0 2345 0 46 21 c57 27 115 85 143 144 21 44 21 57 24 700 2 487
0 661 -9 677 -24 46 -115 45 -133 -2 -3 -9 -6 -303 -6 -653 0 -618 -1 -638
-20 -670 -11 -18 -34 -41 -52 -52 -33 -20 -56 -20 -2338 -20 -2282 0 -2305 0
-2338 20 -18 11 -41 34 -52 52 -20 33 -20 54 -20 1508 0 1385 1 1477 18 1509
9 19 30 44 45 55 28 21 40 21 578 24 302 1 549 0 549 -3 0 -4 -32 -48 -71 -99
l-71 -94 -64 6 c-84 6 -144 -11 -198 -59 -62 -55 -90 -124 -84 -209 6 -74 24
-115 72 -163 53 -53 101 -72 181 -72 80 1 129 20 180 70 72 73 95 190 55 283
-20 45 -21 55 -9 72 8 10 57 75 109 144 l95 125 442 1 442 0 20 26 c28 35 26
69 -4 99 l-24 25 -376 0 c-206 0 -375 2 -375 5 0 3 178 238 396 523 369 481
398 517 423 512 14 -2 51 -4 81 -4 30 0 67 2 81 4 25 5 54 -30 423 -513 218
-284 396 -519 396 -522 0 -3 -169 -5 -375 -5 l-376 0 -24 -25 c-30 -30 -32
-64 -4 -99 l20 -26 442 0 442 -1 95 -125 c52 -69 101 -134 109 -144 12 -17 11
-27 -8 -69 -39 -92 -20 -208 45 -275 56 -58 108 -80 189 -81 80 0 128 19 181
72 48 48 66 89 72 163 11 162 -110 280 -277 268 l-69 -5 -71 93 c-39 51 -71
95 -71 99 0 3 247 4 549 3 538 -3 550 -3 578 -24 65 -48 63 -17 63 -775 l0
-686 23 -21 c31 -29 77 -29 105 1 l22 23 0 690 c0 587 -2 698 -15 741 -19 64
-87 142 -152 174 l-48 24 -626 5 -627 5 -430 563 -431 563 25 36 c105 156 42
378 -130 454 -53 23 -152 33 -201 20z m138 -155 c103 -43 128 -177 48 -257
-112 -113 -296 -12 -267 146 18 94 128 150 219 111z m-1462 -1986 c25 -14 49
-62 49 -101 0 -46 -56 -99 -105 -99 -55 0 -105 52 -105 110 0 58 41 100 100
100 23 0 50 -5 61 -10z m2930 -19 c43 -43 41 -101 -5 -147 -26 -26 -42 -34
-71 -34 -29 0 -45 8 -71 34 -38 38 -44 77 -19 126 20 38 41 49 93 50 35 0 49
-6 73 -29z"/>
<path d="M533 2350 c-25 -10 -43 -39 -43 -70 0 -11 36 -170 80 -353 85 -354
91 -367 149 -367 49 0 64 28 121 224 30 102 57 186 60 186 3 0 30 -82 59 -182
56 -194 74 -228 122 -228 59 0 64 12 149 365 44 182 80 344 80 361 0 60 -69
91 -114 52 -23 -20 -33 -49 -71 -206 -24 -101 -46 -189 -47 -194 -2 -6 -28 71
-57 171 -43 145 -59 186 -79 201 -14 11 -32 20 -42 20 -10 0 -28 -9 -42 -20
-20 -15 -36 -56 -79 -202 l-54 -183 -47 195 c-40 166 -51 198 -73 218 -28 24
-38 25 -72 12z"/>
<path d="M1650 2346 c-84 -19 -151 -58 -212 -125 -75 -80 -101 -147 -101 -261
-1 -65 5 -98 22 -143 65 -166 223 -267 399 -254 323 22 484 393 281 648 -87
109 -252 167 -389 135z m202 -173 c86 -47 135 -140 125 -238 -28 -271 -407
-308 -483 -47 -62 213 163 391 358 285z"/>
<path d="M2245 2351 c-49 -21 -50 -24 -53 -355 -4 -339 0 -388 29 -417 22 -22
67 -25 95 -5 17 13 20 31 24 152 l5 138 104 -134 c57 -74 112 -143 123 -152
46 -41 118 -8 118 55 0 25 -18 56 -85 142 l-86 109 45 23 c141 72 179 246 78
363 -59 70 -98 83 -247 87 -71 2 -139 -1 -150 -6z m281 -174 c31 -36 31 -78 0
-114 -23 -26 -29 -28 -103 -28 l-78 0 -3 74 c-4 105 -5 104 84 99 69 -3 79 -6
100 -31z"/>
<path d="M2815 2348 c-45 -24 -45 -25 -45 -389 0 -335 1 -347 21 -373 15 -19
30 -26 54 -26 24 0 39 7 54 26 18 23 21 41 21 128 l1 101 123 -127 c102 -106
129 -128 153 -128 58 0 96 55 72 103 -6 12 -72 84 -147 159 l-136 137 141 143
c85 86 144 154 148 170 6 22 1 33 -24 59 -47 47 -67 36 -208 -104 l-123 -122
0 97 c0 113 -3 124 -41 143 -33 18 -38 18 -64 3z"/>
<path d="M3783 2350 c-12 -5 -26 -18 -32 -29 -7 -13 -11 -141 -11 -369 l0
-349 23 -21 c31 -29 72 -28 102 3 l25 24 0 346 0 347 -29 29 c-31 31 -42 33
-78 19z"/>
<path d="M4103 2350 c-12 -5 -26 -18 -32 -29 -7 -13 -11 -141 -11 -369 l0
-349 23 -21 c31 -29 72 -28 102 3 25 24 25 25 25 232 l0 208 145 -220 c80
-121 153 -226 162 -232 25 -19 66 -16 91 7 22 21 22 24 22 374 0 322 -2 356
-17 374 -29 34 -66 37 -99 9 l-29 -25 -5 -208 -5 -208 -145 221 c-129 198
-168 245 -198 242 -4 0 -17 -4 -29 -9z"/>
<path d="M512 1217 c-22 -23 -22 -29 -22 -325 0 -289 1 -303 20 -322 30 -30
83 -27 109 6 18 23 21 41 21 134 l0 108 78 3 c65 3 86 9 120 31 93 62 124 187
69 281 -50 85 -104 107 -262 107 -104 0 -113 -2 -133 -23z m244 -135 c24 -16
35 -51 23 -74 -17 -33 -28 -38 -86 -38 l-53 0 0 60 0 60 53 0 c28 0 57 -4 63
-8z"/>
<path d="M1002 1217 c-22 -23 -22 -29 -22 -325 0 -289 1 -303 20 -322 27 -27
81 -26 106 1 14 16 20 42 24 111 l5 90 55 -73 c95 -127 118 -149 156 -149 40
0 74 32 74 70 0 17 -24 57 -69 115 l-68 89 43 27 c147 94 120 322 -45 378 -19
6 -84 11 -146 11 -104 0 -113 -2 -133 -23z m251 -144 c25 -29 26 -63 1 -87
-10 -11 -34 -16 -70 -16 l-54 0 0 60 0 60 53 0 c39 0 58 -5 70 -17z"/>
<path d="M1695 1227 c-95 -32 -167 -93 -211 -179 -40 -76 -45 -199 -13 -283
30 -81 114 -164 196 -195 82 -31 205 -25 281 14 68 35 128 97 161 166 22 47
26 68 26 145 -1 79 -4 97 -30 148 -34 69 -107 140 -172 169 -60 26 -181 33
-238 15z m173 -152 c103 -44 149 -160 103 -260 -36 -79 -95 -115 -185 -115
-104 0 -186 83 -186 189 0 61 13 97 48 135 57 60 146 81 220 51z"/>
<path d="M2310 1219 c-56 -25 -86 -53 -113 -104 -19 -35 -22 -60 -25 -199 -4
-184 4 -226 56 -287 105 -122 301 -102 374 40 24 45 28 65 28 132 0 108 -11
119 -120 119 -67 0 -83 -3 -100 -20 -40 -40 -17 -113 40 -125 36 -8 38 -24 7
-53 -34 -32 -89 -30 -116 4 -19 24 -21 40 -21 163 0 149 8 180 51 195 40 14
78 -1 97 -36 27 -50 49 -68 85 -68 70 0 92 76 43 150 -65 99 -183 136 -286 89z"/>
<path d="M2732 1217 c-22 -23 -22 -29 -22 -325 0 -289 1 -303 20 -322 27 -27
81 -26 106 1 14 16 20 42 24 111 l5 90 55 -73 c95 -127 118 -149 156 -149 40
0 74 32 74 70 0 17 -24 57 -69 115 l-68 89 43 27 c94 60 125 189 70 283 -49
84 -103 106 -261 106 -104 0 -113 -2 -133 -23z m261 -158 c16 -23 17 -30 7
-50 -18 -34 -29 -39 -87 -39 l-53 0 0 60 0 61 56 -3 c48 -3 60 -7 77 -29z"/>
<path d="M3246 1219 l-26 -20 0 -305 c0 -291 1 -305 20 -324 18 -18 33 -20
160 -20 127 0 142 2 160 20 22 22 26 60 10 90 -14 26 -63 40 -136 40 l-64 0 0
60 0 60 79 0 c74 0 81 2 100 26 28 35 26 69 -4 99 -21 22 -33 25 -100 25 l-75
0 0 60 0 60 79 0 c64 0 83 4 105 21 34 27 36 77 3 107 -21 20 -34 22 -154 22
-117 0 -133 -2 -157 -21z"/>
<path d="M3802 1226 c-99 -32 -159 -115 -150 -206 9 -86 76 -148 207 -191 104
-34 127 -67 75 -108 -31 -25 -96 -28 -134 -6 -59 34 -120 4 -120 -58 0 -108
228 -145 348 -57 16 12 39 38 50 58 70 125 10 252 -143 302 -132 43 -168 82
-104 115 38 20 71 14 129 -25 52 -35 79 -37 111 -11 32 26 31 82 -1 116 -60
64 -187 97 -268 71z"/>
<path d="M4340 1231 c-116 -38 -185 -137 -160 -231 20 -75 87 -132 202 -171
90 -30 98 -36 98 -69 0 -55 -78 -78 -157 -45 -47 20 -65 19 -97 -6 -47 -37
-31 -95 37 -131 59 -32 194 -33 252 -1 104 55 145 174 95 273 -27 52 -69 83
-164 116 -44 15 -90 37 -104 49 l-24 21 20 24 c29 36 85 33 147 -8 57 -38 73
-39 109 -11 36 28 36 77 -1 114 -60 60 -187 98 -253 76z"/>
</g>
</svg>
